<svg width="560" height="160" viewBox="0 0 560 160" fill="none" xmlns="http://www.w3.org/2000/svg" role="img" aria-labelledby="title desc">
  <title id="title">BricklabClips logo</title>
  <desc id="desc">An original BricklabClips wordmark with playful block and spark shapes.</desc>
  <rect width="560" height="160" rx="28" fill="#111111"/>
  <g transform="translate(24 28)">
    <rect x="0" y="22" width="86" height="64" rx="10" fill="#FFD433" stroke="#111111" stroke-width="4"/>
    <rect x="14" y="10" width="18" height="18" rx="5" fill="#FFFFFF" stroke="#111111" stroke-width="4"/>
    <rect x="54" y="10" width="18" height="18" rx="5" fill="#FFFFFF" stroke="#111111" stroke-width="4"/>
    <rect x="14" y="44" width="18" height="18" rx="5" fill="#111111"/>
    <rect x="54" y="44" width="18" height="18" rx="5" fill="#111111"/>
    <path d="M19 92H68" stroke="#FFFFFF" stroke-width="8" stroke-linecap="round"/>
    <path d="M96 22L117 6L125 31L151 32L130 49L138 74L116 60L94 75L101 49L81 32L107 31L96 22Z" fill="#2F80ED"/>
  </g>
  <text x="196" y="73" fill="#FFFFFF" font-family="Arial, Helvetica, sans-serif" font-size="44" font-weight="900" letter-spacing="0">Bricklab</text>
  <text x="196" y="116" fill="#FFD433" font-family="Arial, Helvetica, sans-serif" font-size="42" font-weight="900" letter-spacing="0">Clips</text>
  <path d="M485 39H518V72H485V39Z" fill="#22A35A"/>
  <path d="M509 29H533V53H509V29Z" fill="#FF5B45"/>
  <path d="M469 79H499V109H469V79Z" fill="#2F80ED"/>
</svg>

